# xmcd CD database file
#
# Track frame offsets:
#	150
#	150023
#	188048
#	236798
#
# Disc length: 4440 seconds
#
# Revision: 0
# Processed by: cddbd v1.5.2PL0 Copyright (c) Steve Scherf et al.
# Submitted via: CDex 1.70beta2
#
DISCID=22115604
DTITLE=Gaspar Claus - Jo Ha Kyu
DYEAR=2013
DGENRE=Jazz
TTITLE0=Jo Ha Kyu
TTITLE1=First Contact #1 with Sachiko M
TTITLE2=First Contact #2 with Eiko Ishibashi
TTITLE3=First Contact #3 with Keiji Haino
EXTD=YEAR: 2013
EXTT0=
EXTT1=
EXTT2=
EXTT3=
PLAYORDER=
